<?xml version="1.0" encoding="UTF-8" standalone="no"?> <svg id="Layer_1" data-name="Layer 1" xmlns="http://www.w3.org/2000/svg" viewBox="0 0 128 128"><defs><style>.cls-1{fill:#2d3e50;}</style></defs><title>x</title><path class="cls-1" d="M107.33966,6.28426a13.541,13.541,0,0,0-9.9268-4.12811H30.58715a13.541,13.541,0,0,0-9.9268,4.12811,13.54241,13.54241,0,0,0-4.12811,9.92886v95.57775a13.53376,13.53376,0,0,0,4.12811,9.925,13.53289,13.53289,0,0,0,9.9268,4.128H97.41285a14.09425,14.09425,0,0,0,14.05491-14.053V16.21313A13.54241,13.54241,0,0,0,107.33966,6.28426ZM67.95527,120.27881a5.51456,5.51456,0,1,1,1.66876-3.95127A5.41024,5.41024,0,0,1,67.95527,120.27881Zm35.02663-19.73392a5.60756,5.60756,0,0,1-5.569,5.57121H30.58715a5.60756,5.60756,0,0,1-5.569-5.57121V16.21313a5.60417,5.60417,0,0,1,5.569-5.5711H97.41285a5.60417,5.60417,0,0,1,5.569,5.5711Z"/></svg>